####
#
# OBJ File Generated by Meshlab
#
####
# Object Armadillo_256.obj
#
# Vertices: 147
# Faces: 255
#
####
mtllib ./Armadillo_256.obj.mtl

vn -0.005175 0.466151 0.884690
v -0.000000 2.603051 1.988515
vn 0.031905 0.561881 -0.826603
v -0.029954 2.257459 -2.818354
vn -0.006436 0.867440 -0.497500
v 0.000000 2.850511 -2.181887
vn -0.004792 0.973491 0.228674
v -0.000000 3.266546 0.626971
vn 0.523951 -0.029933 -0.851223
v 0.455804 1.915368 -2.872026
vn 0.000000 -0.999936 -0.011307
v -0.000000 2.446718 1.868024
vn 0.453285 0.191031 0.870655
v 0.860361 1.925651 2.183507
vn 0.825608 0.242297 0.509572
v 1.237666 1.993517 1.784168
vn 0.616600 0.672421 0.409456
v 1.025889 2.543413 1.647969
vn 0.965351 -0.260802 0.008952
v 1.399331 1.500178 1.091010
vn 0.735281 0.673137 0.079051
v 0.954277 2.905369 0.735327
vn 0.962422 0.269725 0.031500
v 1.384089 2.200522 1.075880
vn 0.781826 0.620566 -0.060392
v 0.951309 2.984229 -0.404224
vn 0.975115 0.207132 -0.079043
v 1.205911 2.272652 -1.064559
vn 0.863371 0.379318 -0.332729
v 1.071082 2.233862 -2.131414
vn 0.903530 -0.220384 -0.367510
v 1.083525 1.472203 -2.175181
vn 0.772567 -0.634299 -0.028376
v 0.971527 1.016369 -0.286760
vn 0.977360 -0.188834 -0.095441
v 1.214403 1.633943 0.090023
vn 0.965102 0.254683 -0.060955
v 1.205963 2.308865 0.194867
vn 0.747998 0.628294 -0.213883
v 0.880442 2.820403 -1.344313
vn 0.164882 0.885268 0.434872
v 0.420415 2.986263 1.379011
vn 0.355301 0.910056 0.213448
v 0.504894 3.234933 0.554224
vn 0.244738 0.969462 0.015701
v 0.424519 3.341687 -0.377675
vn 0.267382 0.935806 -0.229724
v 0.436308 3.255022 -1.080693
vn 0.405585 0.765801 -0.499049
v 0.521094 2.800235 -2.158517
vn 0.563272 0.334960 -0.755332
v 0.711353 2.162169 -2.722567
vn 0.330063 0.595705 0.732253
v 0.546366 2.583047 1.935310
vn -0.832614 -0.189086 -0.520578
v 0.827836 2.000413 2.057360
vn 0.815778 -0.576154 -0.050526
v 0.806540 0.802295 -1.459295
vn -0.318838 -0.775170 -0.545394
v 0.380492 2.487119 1.780471
vn 0.066450 -0.997646 0.016950
v 0.737280 0.872955 -0.581621
vn -0.830234 -0.548807 -0.097584
v 0.695904 0.939706 1.594782
vn -0.903030 -0.402138 0.151067
v 0.468869 1.124352 1.991015
vn -0.581959 -0.492054 0.647461
v 0.553694 2.145336 2.164994
vn 0.767860 -0.412904 -0.489797
v 0.739535 1.021875 -2.334828
vn -0.294910 -0.431480 0.852557
v 0.540148 1.197060 2.222546
vn -0.330604 0.598266 0.729917
v -0.546366 2.583047 1.935310
vn -0.453349 0.190930 0.870644
v -0.860361 1.925651 2.183507
vn -0.826301 0.241381 0.508883
v -1.237666 1.993517 1.784168
vn -0.782727 -0.264759 0.563241
v -1.213586 1.408563 1.841790
vn -0.622227 0.669179 0.406242
v -1.025889 2.543413 1.647969
vn -0.958677 -0.282827 0.030770
v -1.396035 1.480181 1.090504
vn -0.964372 0.263119 0.027490
v -1.384089 2.200522 1.075880
vn -0.790279 0.609519 -0.062818
v -0.951309 2.984229 -0.404224
vn -0.978003 0.202561 -0.049784
v -1.205963 2.308865 0.194867
vn -0.973807 0.211099 -0.084478
v -1.205911 2.272652 -1.064559
vn -0.975559 -0.217133 -0.033726
v -1.206165 1.624375 -1.000968
vn -0.824777 -0.565375 -0.009750
v -0.939185 1.002605 -0.743452
vn -0.781432 0.369948 -0.502496
v -0.917779 2.227901 -2.436908
vn -0.735894 -0.191484 -0.649457
v -0.797152 1.504729 -2.538478
vn -0.736794 0.671236 0.081095
v -0.954277 2.905369 0.735327
vn -0.738985 -0.670975 -0.060777
v -0.963365 0.992772 0.186734
vn -0.925005 0.200622 -0.322672
v -1.108818 2.144961 -2.039074
vn -0.764449 0.603095 -0.227802
v -0.880442 2.820403 -1.344313
vn -0.190540 0.882158 0.430688
v -0.503001 2.960183 1.370482
vn -0.309452 0.933313 0.182118
v -0.504894 3.234933 0.554224
vn -0.324420 0.945350 -0.032647
v -0.504875 3.302676 -0.430990
vn -0.354604 0.902034 -0.246152
v -0.506198 3.208158 -1.124475
vn -0.378062 0.769069 -0.515366
v -0.521094 2.800235 -2.158517
vn -0.443590 0.256872 -0.858630
v -0.567616 2.156196 -2.805157
vn -0.682437 -0.510679 -0.522960
v -0.695098 1.072147 -2.324594
vn 0.581902 -0.492029 0.647532
v -0.553694 2.145336 2.164994
vn 0.776069 -0.194683 -0.599846
v -0.828076 1.999949 2.057498
vn -0.083314 -0.995266 -0.050047
v -0.765131 0.860583 0.286131
vn -0.820312 -0.567038 -0.074544
v -0.795895 0.796267 -1.510382
vn -0.390240 -0.231720 -0.891077
v -0.454297 1.479822 -2.773760
vn 0.319056 -0.775157 -0.545284
v -0.380492 2.487119 1.780471
vn -0.613224 -0.789535 0.024289
v -0.744398 0.837668 -0.801430
vn 0.597668 -0.387800 0.701715
v -0.540009 1.197292 2.222515
vn -0.237792 -0.955056 0.176982
v -0.789145 0.730127 1.682640
vn 0.641690 0.324342 0.695009
v 0.372781 1.513259 2.934282
vn -0.305735 0.506744 0.806062
v -0.260178 1.680875 2.928205
vn -0.374824 0.753172 0.540591
v -0.230785 2.056086 2.604785
vn 0.945688 -0.157328 0.284469
v 0.581563 1.533413 2.206311
vn 0.497254 0.612373 0.614604
v 0.326339 1.910341 2.749125
vn 0.245836 -0.958239 0.146091
v 0.310770 1.175277 2.087291
vn -0.473332 -0.852063 0.223486
v -0.385589 1.180179 2.089193
vn -0.089952 -0.994007 0.062123
v -0.378572 0.894308 -0.461649
vn 0.364505 -0.845076 0.391131
v 0.835124 0.941407 1.486221
vn 0.365887 -0.928696 0.060421
v 0.868973 1.029155 -0.617872
vn 0.112842 0.150507 -0.982148
v 0.561054 2.171112 -2.639100
vn 0.270476 -0.961931 -0.039125
v 0.883804 1.028712 0.195349
vn 0.805845 -0.490013 -0.332418
v 0.750011 0.915113 -1.659504
vn 0.034814 -0.998921 -0.030745
v 0.398851 0.903858 0.374973
vn 0.462615 0.786572 0.409013
v 0.374826 2.205106 2.091573
vn 0.558732 -0.797543 -0.227473
v 0.240601 1.327486 -2.563879
vn 0.158791 -0.985496 0.059854
v 0.378078 0.889713 -0.462072
vn 0.300385 -0.521954 -0.798331
v 0.621320 1.529419 -2.601836
vn -0.033400 0.668772 -0.742717
v 0.000000 1.776880 -2.820062
vn 0.074869 -0.986001 0.148987
v 0.416991 0.792275 1.391568
vn -0.447214 0.000000 -0.894427
v 0.648224 0.228410 1.632570
vn 0.000000 0.000000 0.000000
v 0.460332 0.123498 1.570134
vn 0.422813 -0.812680 0.400975
v 0.599910 0.847231 -1.199754
vn -0.292935 -0.930918 0.218132
v 0.374264 0.812726 -1.283398
vn 0.453458 -0.445491 0.771954
v 0.665167 0.193802 -1.372601
vn -0.183535 -0.803865 -0.565788
v 0.524186 -0.003935 -1.650348
vn 0.040614 -0.800671 -0.597726
v 0.427753 0.907603 -1.858321
vn 0.665378 0.236689 -0.707990
v 0.247291 1.708886 -2.723645
vn -0.079077 -0.677021 0.731703
v 0.000000 1.278956 -2.455372
vn -0.084526 0.760376 -0.643959
v 0.000000 1.052844 -3.432011
vn 0.841340 0.376453 -0.387853
v 0.189738 0.970462 -3.347587
vn 0.865807 -0.439207 0.239740
v 0.189738 0.805698 -3.178738
vn -0.016314 -0.806953 0.590390
v 0.000000 0.723316 -3.094313
vn 0.469411 0.806635 -0.359156
v 0.103679 0.526039 -4.200509
vn 0.884429 -0.459645 0.080699
v 0.169200 0.274006 -4.123511
vn -0.079668 -0.928621 0.362375
v 0.000000 0.183389 -4.094788
vn 0.946638 -0.322053 -0.012574
v 0.114966 0.077701 -5.198994
vn 0.531673 0.833853 -0.148371
v 0.072995 0.255079 -5.279140
vn -0.610728 -0.742503 -0.275137
v -0.179201 0.540509 3.141720
vn -0.901281 0.356874 0.245630
v -0.491625 2.002738 2.179983
vn 0.147169 -0.639148 0.754872
v 0.003087 0.212652 3.757054
vn -0.955714 0.082514 0.282493
v -0.484417 1.519825 2.694036
vn -0.280992 -0.959685 0.006967
v -0.884238 1.048925 -0.347446
vn -0.689727 -0.452566 -0.565208
v -0.734531 0.932259 -1.713871
vn -0.369724 0.169118 -0.913621
v -0.594958 2.127944 -2.620212
vn -0.282960 0.848208 0.447747
v -0.226799 2.364938 2.022217
vn -0.649552 -0.741476 -0.168215
v -0.243973 1.309622 -2.630220
vn -0.380096 -0.720255 -0.580310
v -0.411984 1.321283 -2.536943
vn -0.050525 -0.998038 -0.036970
v -0.414190 0.902739 0.358504
vn 0.044173 -0.981933 0.184000
v -0.000000 0.895016 1.457512
vn -0.573376 -0.389439 -0.720817
v -0.763624 1.543274 -2.459437
vn -0.711123 -0.032270 -0.702327
v -0.243973 1.651037 -2.756782
vn -0.765685 -0.571979 0.294221
v -0.846789 0.945932 1.508497
vn 0.503369 -0.699242 0.507621
v -0.448102 0.820266 1.630217
vn 0.038053 -0.973070 -0.227346
v -0.465045 0.825847 1.175495
vn 0.293967 -0.712606 -0.637006
v -0.581421 0.158300 1.459436
vn -0.174119 -0.239525 0.955149
v -0.517396 0.163085 1.775073
vn -0.692075 -0.392268 0.605935
v -0.764728 0.933189 -1.366532
vn 0.057777 -0.851746 -0.520760
v -0.432305 0.928072 -1.843081
vn 0.259048 -0.948009 0.184857
v -0.361474 0.789294 -1.261261
vn 0.150801 -0.776316 -0.612040
v -0.524186 -0.003935 -1.650348
vn -0.072745 -0.444679 0.892731
v -0.469936 0.160258 -1.315545
vn -0.885606 -0.389247 0.253353
v -0.698821 0.220305 -1.429686
vn -0.304780 -0.033070 -0.951849
v -0.423953 1.740521 -2.761129
vn 0.785873 0.251416 -0.564972
v 0.000000 0.024164 -8.337696
vn -0.807343 0.406283 -0.427938
v -0.189738 0.970462 -3.347587
vn -0.892792 -0.397624 0.211701
v -0.189738 0.805698 -3.178738
vn -0.976328 0.140094 -0.164792
v -0.192382 0.305911 -4.304314
vn -0.343651 -0.935942 0.076922
v -0.064821 0.000947 -5.322367
vn -0.782008 0.608751 -0.133738
v -0.114485 0.219311 -5.210930
vn 0.810554 -0.322230 0.489051
v 1.213408 1.408136 1.842160
vn 0.072434 -0.981214 0.178806
v 0.817250 0.742615 1.670809
vn 0.813738 -0.581218 -0.004134
v 0.986120 0.900413 1.059331
vn 0.908983 -0.404758 -0.099604
v 1.052262 1.214425 0.149128
vn 0.979262 -0.187661 -0.076345
v -0.568512 1.176735 1.955211
vn -0.971789 -0.209285 -0.108743
v -1.193056 1.522191 0.084841
vn -0.923987 -0.252327 -0.287364
v -1.101705 1.480294 -2.101429
# 147 vertices, 0 vertices normals


usemtl material_0
vt 0.592153 0.987508
vt 0.535833 0.981961
vt 0.517593 0.910341
f 6/1/6 30/2/30 34/3/34
vt 0.383342 0.895039
vt 0.376640 0.941563
vt 0.352843 0.924921
f 36/4/36 28/5/28 33/6/33
vt 0.487175 0.954869
f 30/2/30 28/7/28 34/3/34
vt 0.439639 0.950321
vt 0.466866 0.910451
f 28/8/28 36/4/36 34/9/34
vt 0.510168 0.838135
vt 0.454332 0.842740
vt 0.457718 0.772585
f 27/10/27 7/11/7 8/12/8
vt 0.521739 0.783221
f 27/10/27 8/12/8 9/13/9
vt 0.392245 0.774853
f 7/11/7 141/14/141 8/12/8
vt 0.474156 0.701838
f 9/13/9 8/12/8 12/15/12
vt 0.391039 0.695885
f 8/12/8 141/14/141 10/16/10
f 8/12/8 10/16/10 12/15/12
vt 0.354931 0.781498
vt 0.339106 0.700391
f 141/14/141 142/17/142 143/18/143
f 141/14/141 143/18/143 10/16/10
vt 0.558297 0.720606
vt 0.488882 0.638133
vt 0.585516 0.651332
f 9/19/9 12/20/12 11/21/11
vt 0.332426 0.622853
f 10/16/10 143/18/143 144/22/144
vt 0.494398 0.565842
f 11/21/11 12/20/12 19/23/19
vt 0.389809 0.629173
vt 0.392570 0.560033
f 12/20/12 10/24/10 18/25/18
f 12/20/12 18/25/18 19/23/19
vt 0.334344 0.555036
f 10/24/10 144/26/144 18/25/18
vt 0.600088 0.479335
vt 0.494060 0.485166
vt 0.490052 0.391686
f 13/27/13 19/28/19 14/29/14
vt 0.591836 0.380934
f 13/27/13 14/29/14 20/30/20
vt 0.393746 0.391600
f 19/28/19 18/31/18 14/29/14
vt 0.393174 0.475306
vt 0.335663 0.463467
vt 0.333155 0.383397
f 18/32/18 17/33/17 29/34/29
vt 0.482346 0.305145
f 20/30/20 14/29/14 15/35/15
vt 0.390104 0.300221
f 14/29/14 18/31/18 16/36/16
f 14/29/14 16/36/16 15/35/15
vt 0.342699 0.294699
f 18/31/18 29/37/29 16/36/16
vt 0.475038 0.246426
vt 0.397449 0.164275
vt 0.461751 0.171743
f 15/38/15 16/39/16 26/40/26
vt 0.521019 0.048361
vt 0.521833 0.138997
vt 0.484150 0.113520
f 2/41/2 26/42/26 5/43/5
vt 0.568777 0.072427
vt 0.644850 0.141462
vt 0.581595 0.195911
f 2/44/2 3/45/3 25/46/25
f 2/44/2 25/46/25 26/42/26
vt 0.703288 0.236870
vt 0.664635 0.366522
vt 0.628168 0.270579
f 3/47/3 24/48/24 25/49/25
vt 0.738606 0.698574
vt 0.629552 0.751446
vt 0.659711 0.674961
f 4/50/4 21/51/21 22/52/22
vt 0.644768 0.872792
vt 0.575314 0.831652
f 21/51/21 1/53/1 27/54/27
vt 0.523817 0.890777
f 1/53/1 34/55/34 27/54/27
vt 0.763347 0.467009
vt 0.760485 0.597409
vt 0.678326 0.587949
f 23/56/23 4/57/4 22/58/22
f 18/25/18 144/26/144 17/33/17
vt 0.596546 0.573484
f 11/59/11 19/28/19 13/27/13
vt 0.367787 0.223334
f 16/36/16 29/37/29 35/60/35
f 22/52/22 21/51/21 9/19/9
f 22/52/22 9/19/9 11/21/11
vt 0.682183 0.472323
f 23/61/23 22/58/22 11/59/11
f 23/61/23 11/59/11 13/27/13
f 24/48/24 23/61/23 13/27/13
f 24/48/24 13/27/13 20/30/20
f 25/49/25 24/48/24 20/30/20
vt 0.559436 0.296617
vt 0.525946 0.234842
f 25/46/25 20/62/20 15/63/15
f 26/42/26 25/46/25 15/63/15
vt 0.456529 0.103934
f 5/64/5 26/40/26 16/39/16
vt 0.249296 0.432471
vt 0.281795 0.376443
vt 0.286913 0.448461
f 31/65/31 29/66/29 17/67/17
vt 0.251339 0.635196
vt 0.247222 0.551630
vt 0.284988 0.548316
f 142/68/142 31/69/31 17/70/17
vt 0.283786 0.617496
f 142/68/142 17/70/17 143/71/143
vt 0.367296 0.833678
vt 0.323074 0.837708
vt 0.323303 0.787130
f 141/72/141 36/73/36 142/74/142
f 7/11/7 27/10/27 34/55/34
f 21/51/21 27/54/27 9/13/9
vt 0.456416 0.881437
vt 0.401093 0.874693
f 7/11/7 34/75/34 36/76/36
vt 0.405022 0.839458
f 7/11/7 36/76/36 141/77/141
vt 0.602233 0.917258
vt 0.589420 0.934514
f 1/78/1 6/79/6 34/3/34
vt 0.234291 0.639132
vt 0.233089 0.551897
f 142/68/142 32/80/32 31/81/31
vt 0.301647 0.795588
vt 0.313801 0.849837
f 142/82/142 36/73/36 33/83/33
vt 0.287497 0.802580
f 142/82/142 33/83/33 32/84/32
vt 0.408265 0.099846
f 35/85/35 5/64/5 16/39/16
f 6/1/6 62/3/62 67/2/67
f 67/2/67 62/3/62 63/7/63
f 63/8/63 62/9/62 69/4/69
f 37/10/37 41/13/41 39/12/39
f 37/10/37 39/12/39 38/11/38
f 38/11/38 39/12/39 40/14/40
f 41/13/41 43/15/43 39/12/39
f 39/12/39 43/15/43 42/16/42
f 39/12/39 42/16/42 40/14/40
f 41/19/41 51/21/51 43/20/43
vt 0.338682 0.700428
vt 0.331958 0.622801
f 42/86/42 146/87/146 52/71/52
f 51/21/51 45/23/45 43/20/43
f 43/20/43 45/23/45 146/25/146
f 43/20/43 146/25/146 42/24/42
f 44/27/44 54/30/54 46/29/46
f 44/27/44 46/29/46 45/28/45
f 45/28/45 46/29/46 47/31/47
f 54/30/54 53/35/53 46/29/46
f 46/29/46 53/35/53 147/36/147
f 46/29/46 147/36/147 47/31/47
f 53/38/53 49/40/49 50/39/50
vt 0.395250 0.233713
f 53/38/53 50/39/50 147/88/147
vt 0.476580 0.058301
vt 0.439563 0.078910
f 2/89/2 66/90/66 60/64/60
f 2/44/2 60/42/60 59/46/59
f 2/44/2 59/46/59 3/45/3
f 3/47/3 59/49/59 58/48/58
vt 0.743655 0.347390
f 3/47/3 58/48/58 24/91/24
f 24/91/24 58/48/58 57/61/57
f 24/91/24 57/61/57 23/56/23
f 4/50/4 56/52/56 55/51/55
vt 0.699130 0.790867
f 4/50/4 55/51/55 21/92/21
f 55/51/55 37/54/37 1/53/1
f 55/51/55 1/53/1 21/92/21
f 1/53/1 37/54/37 62/55/62
f 23/56/23 57/61/57 56/58/56
f 23/56/23 56/58/56 4/57/4
vt 0.333869 0.554985
f 146/93/146 48/67/48 52/70/52
f 45/23/45 47/32/47 146/25/146
f 51/59/51 44/27/44 45/28/45
f 54/62/54 49/63/49 53/38/53
f 56/52/56 51/21/51 41/19/41
f 56/52/56 41/19/41 55/51/55
f 57/61/57 44/27/44 51/59/51
f 57/61/57 51/59/51 56/58/56
f 58/48/58 54/30/54 44/27/44
f 58/48/58 44/27/44 57/61/57
f 59/49/59 54/30/54 58/48/58
f 59/46/59 49/63/49 54/62/54
f 60/42/60 49/63/49 59/46/59
f 60/64/60 50/39/50 49/40/49
vt 0.326741 0.182706
vt 0.344507 0.214536
f 61/94/61 147/95/147 50/39/50
vt 0.374902 0.124266
f 61/94/61 50/39/50 66/96/66
vt 0.302517 0.290018
f 65/97/65 147/95/147 61/94/61
vt 0.255050 0.368131
f 68/98/68 48/66/48 65/97/65
f 52/70/52 48/67/48 68/65/68
f 52/70/52 68/65/68 64/69/64
vt 0.273957 0.736702
vt 0.295085 0.704212
f 70/99/70 42/100/42 52/71/52
f 70/99/70 52/71/52 64/68/64
f 40/72/40 70/74/70 69/73/69
f 38/11/38 62/55/62 37/10/37
f 55/51/55 41/13/41 37/54/37
f 38/11/38 40/77/40 69/76/69
f 38/11/38 69/76/69 62/75/62
f 1/78/1 62/3/62 6/79/6
vt 0.347558 0.858527
vt 0.339249 0.870428
f 69/101/69 70/83/70 145/102/145
vt 0.230450 0.710973
vt 0.270913 0.841305
f 70/84/70 64/103/64 145/104/145
f 66/85/66 50/39/50 60/64/60
vt 0.041214 0.976823
vt 0.062724 0.932112
vt 0.075350 0.948333
f 111/105/111 74/106/74 71/107/71
vt 0.044712 0.917980
vt 0.070159 0.875346
f 74/106/74 111/108/111 76/109/76
vt 0.025363 0.917523
vt 0.040227 0.869112
f 109/110/109 77/111/77 76/109/76
f 109/110/109 76/109/76 111/108/111
vt 0.133870 0.971892
vt 0.084425 0.965416
vt 0.125900 0.947912
f 72/112/72 71/113/71 75/114/75
vt 0.167972 0.957905
f 73/115/73 72/112/72 75/114/75
vt 0.155318 0.936168
vt 0.135241 0.912649
vt 0.156754 0.899180
f 75/116/75 71/117/71 74/118/74
vt 0.178556 0.918666
f 75/116/75 74/118/74 85/119/85
vt 0.194607 0.941321
f 73/120/73 75/116/75 85/119/85
vt 0.019364 0.391474
vt 0.064982 0.290959
vt 0.064591 0.391830
f 78/121/78 94/122/94 87/123/87
vt 0.016868 0.640536
vt 0.017862 0.525674
vt 0.062925 0.526216
f 84/124/84 78/125/78 87/126/87
vt 0.038185 0.830150
vt 0.055982 0.779891
vt 0.092807 0.828326
f 77/127/77 120/128/120 76/129/76
vt 0.220839 0.931982
f 116/130/116 73/120/73 85/119/85
vt 0.117213 0.083165
vt 0.179066 0.029754
vt 0.180899 0.097430
f 97/131/97 88/132/88 83/133/83
vt 0.109830 0.392482
vt 0.108674 0.291481
vt 0.175901 0.299141
f 87/134/87 93/135/93 80/136/80
vt 0.185640 0.521619
vt 0.107903 0.526816
f 82/137/82 84/138/84 87/134/87
vt 0.188975 0.400139
f 82/137/82 87/134/87 80/139/80
vt 0.104416 0.641196
f 90/140/90 84/138/84 82/137/82
vt 0.180162 0.683527
f 90/140/90 82/137/82 79/141/79
vt 0.162991 0.776070
vt 0.124280 0.853468
f 76/129/76 79/142/79 74/143/74
f 87/123/87 94/122/94 93/135/93
vt 0.097998 0.782157
vt 0.113641 0.762156
f 79/142/79 76/144/76 90/145/90
vt 0.041405 0.725149
vt 0.060824 0.640433
vt 0.096522 0.706051
f 120/146/120 84/147/84 90/148/90
vt 0.095303 0.756556
f 76/144/76 120/128/120 90/149/90
vt 0.941860 0.798882
vt 0.920338 0.804378
vt 0.916626 0.716308
f 90/150/90 79/151/79 91/152/91
vt 0.880556 0.799879
vt 0.861706 0.787636
vt 0.869223 0.707606
f 79/153/79 90/154/90 91/155/91
vt 0.960592 0.795204
vt 0.932600 0.717266
vt 0.948503 0.714745
f 90/156/90 91/157/91 92/158/92
vt 0.842265 0.786733
vt 0.834144 0.702079
vt 0.852197 0.707796
f 90/159/90 92/160/92 91/161/91
vt 0.176353 0.191077
vt 0.147686 0.243137
f 83/162/83 80/136/80 93/163/93
vt 0.919351 0.973982
vt 0.892862 0.976010
vt 0.880691 0.872188
f 97/164/97 83/165/83 96/166/96
vt 0.859558 0.871113
f 83/165/83 95/167/95 96/166/96
vt 0.850767 0.972250
vt 0.828983 0.970094
vt 0.843969 0.874379
f 83/168/83 93/169/93 95/170/95
vt 0.980245 0.931036
vt 0.912076 0.867199
vt 0.934828 0.845252
f 97/171/97 96/172/96 94/173/94
vt 0.803657 0.961340
vt 0.808896 0.866160
vt 0.825093 0.871402
f 93/174/93 94/175/94 95/176/95
vt 0.948935 0.140448
vt 0.974709 0.152399
vt 0.972075 0.156236
f 95/177/95 94/178/94 96/179/96
vt 0.725268 0.114899
vt 0.712830 0.077031
vt 0.747869 0.090918
f 98/180/98 81/181/81 88/182/88
vt 0.795445 0.127224
f 86/183/86 98/180/98 88/182/88
vt 0.079128 0.079564
vt 0.123325 0.005591
f 86/184/86 88/185/88 97/131/97
vt 0.791234 0.261590
vt 0.760513 0.272030
vt 0.704113 0.151327
f 101/186/101 100/187/100 89/188/89
vt 0.741389 0.132985
f 101/186/101 89/188/89 98/189/98
vt 0.823872 0.250237
f 102/190/102 101/186/101 98/189/98
vt 0.796720 0.144457
f 102/190/102 98/189/98 86/191/86
vt 0.855938 0.243521
f 103/192/103 102/190/102 86/191/86
vt 0.839025 0.144661
f 103/192/103 86/191/86 99/193/99
vt 0.809256 0.406371
f 104/194/104 100/187/100 101/186/101
vt 0.836890 0.407987
f 105/195/105 104/194/104 101/186/101
f 105/195/105 101/186/101 102/190/102
vt 0.865291 0.409836
f 106/196/106 105/195/105 102/190/102
f 106/196/106 102/190/102 103/192/103
vt 0.818277 0.568044
vt 0.797822 0.562408
f 107/197/107 108/198/108 104/194/104
f 107/197/107 104/194/104 105/195/105
vt 0.837560 0.573036
f 139/199/139 107/197/107 105/195/105
f 139/199/139 105/195/105 106/196/106
vt 0.785079 0.723053
f 135/200/135 108/198/108 107/197/107
vt 0.798106 0.726462
f 135/201/135 107/197/107 139/199/139
vt 0.115217 0.924624
f 72/113/72 112/202/112 111/107/111
vt 0.096789 0.900715
f 111/107/111 112/202/112 109/203/109
vt 0.047110 0.994104
vt 0.045337 0.984756
vt 0.031248 0.991410
f 71/204/71 72/205/72 111/206/111
vt 0.112431 0.888661
f 112/202/112 77/207/77 109/203/109
f 72/114/72 73/116/73 112/117/112
vt 0.128206 0.880417
f 112/117/112 110/118/110 77/208/77
f 73/116/73 110/118/110 112/117/112
f 89/188/89 122/189/122 134/180/134
vt 0.688222 0.140683
f 89/188/89 134/180/134 98/209/98
f 118/183/118 117/191/117 99/193/99
vt 0.021024 0.289739
vt 0.068446 0.207329
f 94/210/94 130/122/130 129/211/129
vt 0.026498 0.193178
f 94/210/94 129/211/129 97/212/97
f 78/121/78 130/122/130 94/210/94
f 84/124/84 119/147/119 78/126/78
vt 0.020137 0.725103
f 120/213/120 119/147/119 84/124/84
f 116/130/116 110/119/110 73/120/73
vt 0.071346 0.158605
vt 0.040861 0.075010
f 129/214/129 118/184/118 86/215/86
vt 0.030978 0.154590
f 129/214/129 86/215/86 97/216/97
vt 0.730184 0.027017
vt 0.765958 0.039964
f 115/217/115 134/182/134 121/218/121
f 118/131/118 114/133/114 121/132/121
f 113/137/113 78/134/78 119/138/119
f 125/140/125 123/141/123 113/137/113
f 125/140/125 113/137/113 119/138/119
f 77/129/77 123/142/123 124/144/124
f 77/129/77 124/144/124 120/128/120
vt 0.791952 0.096442
f 118/219/118 121/218/121 134/182/134
f 117/191/117 118/183/118 134/180/134
f 117/191/117 134/180/134 122/189/122
vt 0.088238 0.734204
f 120/146/120 124/220/124 125/148/125
f 120/146/120 125/148/125 119/147/119
f 125/150/125 126/152/126 123/151/123
vt 0.898646 0.796108
vt 0.902344 0.714504
vt 0.887565 0.713080
f 123/221/123 126/222/126 127/223/127
f 123/221/123 127/223/127 124/153/124
vt 0.984105 0.777832
vt 0.965413 0.700182
f 124/224/124 127/225/127 126/158/126
f 124/224/124 126/158/126 125/156/125
vt 0.125273 0.156353
vt 0.146709 0.174192
f 118/131/118 129/226/129 114/227/114
vt 0.121706 0.261974
f 113/136/113 128/163/128 130/228/130
f 113/136/113 130/228/130 78/135/78
f 129/164/129 131/166/131 114/165/114
f 114/165/114 131/166/131 133/167/133
f 114/165/114 133/167/133 128/168/128
f 128/169/128 133/170/133 132/176/132
f 128/169/128 132/176/132 130/174/130
f 130/171/130 132/173/132 131/172/131
vt 0.942044 0.967176
f 130/171/130 131/172/131 129/229/129
vt 0.893502 0.059779
vt 0.878133 0.089120
vt 0.913516 0.086843
f 131/230/131 132/231/132 133/232/133
vt 0.677675 0.135167
f 134/180/134 81/233/81 98/209/98
vt 0.698282 0.106790
f 134/180/134 115/181/115 81/234/81
vt 0.089815 0.018147
vt 0.048006 0.031298
f 86/215/86 118/235/118 99/236/99
f 136/186/136 122/189/122 89/188/89
f 136/186/136 89/188/89 100/187/100
f 137/190/137 117/191/117 122/189/122
f 137/190/137 122/189/122 136/186/136
f 103/192/103 99/193/99 117/191/117
f 103/192/103 117/191/117 137/190/137
f 138/194/138 136/186/136 100/187/100
vt 0.780726 0.406818
f 138/194/138 100/187/100 104/237/104
f 138/195/138 137/190/137 136/186/136
f 106/196/106 103/192/103 137/190/137
f 106/196/106 137/190/137 138/195/138
f 140/198/140 138/194/138 104/237/104
vt 0.778160 0.559147
f 140/198/140 104/237/104 108/238/108
f 139/197/139 138/194/138 140/198/140
f 139/199/139 106/196/106 138/195/138
vt 0.771034 0.719723
vt 0.757774 0.717464
f 140/239/140 108/238/108 135/240/135
f 135/200/135 139/197/139 140/198/140
f 144/26/144 143/71/143 17/70/17
vt 0.352648 0.924785
f 69/4/69 145/241/145 63/5/63
vt 0.354627 0.781552
f 40/14/40 42/86/42 70/242/70
vt 0.335193 0.463349
f 146/25/146 47/32/47 48/243/48
vt 0.342312 0.294654
f 47/31/47 147/36/147 65/244/65
vt 0.332660 0.383330
f 47/31/47 65/244/65 48/245/48
# 255 faces, 245 coords texture

# End of File
